<svg xmlns="http://www.w3.org/2000/svg" width="760" height="520" viewBox="0 0 760 520">
  <rect width="100%" height="100%" fill="#fcfcf8" />
  <text x="380.00" y="30" text-anchor="middle" font-size="22" font-weight="700" fill="#1f2a2a">Drag Coefficient CD vs Angle of Attack AOA</text>
  <line x1="90.00" y1="60" x2="90.00" y2="440" stroke="#d7ded9" stroke-width="1" /><line x1="90.00" y1="440" x2="90.00" y2="446" stroke="#555" stroke-width="1.5" /><text x="90.00" y="464" text-anchor="middle" font-size="13" fill="#333">-3.00</text>
<line x1="250.00" y1="60" x2="250.00" y2="440" stroke="#d7ded9" stroke-width="1" /><line x1="250.00" y1="440" x2="250.00" y2="446" stroke="#555" stroke-width="1.5" /><text x="250.00" y="464" text-anchor="middle" font-size="13" fill="#333">0.00</text>
<line x1="410.00" y1="60" x2="410.00" y2="440" stroke="#d7ded9" stroke-width="1" /><line x1="410.00" y1="440" x2="410.00" y2="446" stroke="#555" stroke-width="1.5" /><text x="410.00" y="464" text-anchor="middle" font-size="13" fill="#333">3.00</text>
<line x1="570.00" y1="60" x2="570.00" y2="440" stroke="#d7ded9" stroke-width="1" /><line x1="570.00" y1="440" x2="570.00" y2="446" stroke="#555" stroke-width="1.5" /><text x="570.00" y="464" text-anchor="middle" font-size="13" fill="#333">6.00</text>
<line x1="730.00" y1="60" x2="730.00" y2="440" stroke="#d7ded9" stroke-width="1" /><line x1="730.00" y1="440" x2="730.00" y2="446" stroke="#555" stroke-width="1.5" /><text x="730.00" y="464" text-anchor="middle" font-size="13" fill="#333">9.00</text>
  <line x1="90" y1="440.00" x2="730" y2="440.00" stroke="#d7ded9" stroke-width="1" /><line x1="84" y1="440.00" x2="90" y2="440.00" stroke="#555" stroke-width="1.5" /><text x="78" y="444.00" text-anchor="end" font-size="13" fill="#333">-0.01</text>
<line x1="90" y1="345.00" x2="730" y2="345.00" stroke="#d7ded9" stroke-width="1" /><line x1="84" y1="345.00" x2="90" y2="345.00" stroke="#555" stroke-width="1.5" /><text x="78" y="349.00" text-anchor="end" font-size="13" fill="#333">0.05</text>
<line x1="90" y1="250.00" x2="730" y2="250.00" stroke="#d7ded9" stroke-width="1" /><line x1="84" y1="250.00" x2="90" y2="250.00" stroke="#555" stroke-width="1.5" /><text x="78" y="254.00" text-anchor="end" font-size="13" fill="#333">0.12</text>
<line x1="90" y1="155.00" x2="730" y2="155.00" stroke="#d7ded9" stroke-width="1" /><line x1="84" y1="155.00" x2="90" y2="155.00" stroke="#555" stroke-width="1.5" /><text x="78" y="159.00" text-anchor="end" font-size="13" fill="#333">0.19</text>
<line x1="90" y1="60.00" x2="730" y2="60.00" stroke="#d7ded9" stroke-width="1" /><line x1="84" y1="60.00" x2="90" y2="60.00" stroke="#555" stroke-width="1.5" /><text x="78" y="64.00" text-anchor="end" font-size="13" fill="#333">0.26</text>
  <line x1="90" y1="420.24" x2="730" y2="420.24" stroke="#555" stroke-width="1.5" />
  <line x1="250.00" y1="60" x2="250.00" y2="440" stroke="#555" stroke-width="1.5" />
  <polyline fill="none" stroke="#0f4c81" stroke-width="3" points="143.33,366.86 250.00,408.33 356.67,366.43 463.33,281.64 570.00,187.78 676.67,91.67" />
  <circle cx="143.33" cy="366.86" r="4.5" fill="#0f4c81" />
<circle cx="250.00" cy="408.33" r="4.5" fill="#0f4c81" />
<circle cx="356.67" cy="366.43" r="4.5" fill="#0f4c81" />
<circle cx="463.33" cy="281.64" r="4.5" fill="#0f4c81" />
<circle cx="570.00" cy="187.78" r="4.5" fill="#0f4c81" />
<circle cx="676.67" cy="91.67" r="4.5" fill="#0f4c81" />
  <text x="380.00" y="496" text-anchor="middle" font-size="16" fill="#1f2a2a">Angle of Attack, AOA (deg)</text>
  <text x="24" y="260.00" text-anchor="middle" font-size="16" fill="#1f2a2a"
        transform="rotate(-90 24 260.00)">Drag Coefficient, CD</text>
</svg>
