<svg xmlns="http://www.w3.org/2000/svg" width="760" height="520" viewBox="0 0 760 520">
  <rect width="100%" height="100%" fill="#fcfcf8" />
  <text x="380.00" y="30" text-anchor="middle" font-size="22" font-weight="700" fill="#1f2a2a">Drag Polar: Lift Coefficient CL vs Drag Coefficient CD</text>
  <line x1="90.00" y1="60" x2="90.00" y2="440" stroke="#d7ded9" stroke-width="1" /><line x1="90.00" y1="440" x2="90.00" y2="446" stroke="#555" stroke-width="1.5" /><text x="90.00" y="464" text-anchor="middle" font-size="13" fill="#333">-0.01</text>
<line x1="250.00" y1="60" x2="250.00" y2="440" stroke="#d7ded9" stroke-width="1" /><line x1="250.00" y1="440" x2="250.00" y2="446" stroke="#555" stroke-width="1.5" /><text x="250.00" y="464" text-anchor="middle" font-size="13" fill="#333">0.05</text>
<line x1="410.00" y1="60" x2="410.00" y2="440" stroke="#d7ded9" stroke-width="1" /><line x1="410.00" y1="440" x2="410.00" y2="446" stroke="#555" stroke-width="1.5" /><text x="410.00" y="464" text-anchor="middle" font-size="13" fill="#333">0.12</text>
<line x1="570.00" y1="60" x2="570.00" y2="440" stroke="#d7ded9" stroke-width="1" /><line x1="570.00" y1="440" x2="570.00" y2="446" stroke="#555" stroke-width="1.5" /><text x="570.00" y="464" text-anchor="middle" font-size="13" fill="#333">0.19</text>
<line x1="730.00" y1="60" x2="730.00" y2="440" stroke="#d7ded9" stroke-width="1" /><line x1="730.00" y1="440" x2="730.00" y2="446" stroke="#555" stroke-width="1.5" /><text x="730.00" y="464" text-anchor="middle" font-size="13" fill="#333">0.26</text>
  <line x1="90" y1="440.00" x2="730" y2="440.00" stroke="#d7ded9" stroke-width="1" /><line x1="84" y1="440.00" x2="90" y2="440.00" stroke="#555" stroke-width="1.5" /><text x="78" y="444.00" text-anchor="end" font-size="13" fill="#333">-0.70</text>
<line x1="90" y1="345.00" x2="730" y2="345.00" stroke="#d7ded9" stroke-width="1" /><line x1="84" y1="345.00" x2="90" y2="345.00" stroke="#555" stroke-width="1.5" /><text x="78" y="349.00" text-anchor="end" font-size="13" fill="#333">-0.14</text>
<line x1="90" y1="250.00" x2="730" y2="250.00" stroke="#d7ded9" stroke-width="1" /><line x1="84" y1="250.00" x2="90" y2="250.00" stroke="#555" stroke-width="1.5" /><text x="78" y="254.00" text-anchor="end" font-size="13" fill="#333">0.43</text>
<line x1="90" y1="155.00" x2="730" y2="155.00" stroke="#d7ded9" stroke-width="1" /><line x1="84" y1="155.00" x2="90" y2="155.00" stroke="#555" stroke-width="1.5" /><text x="78" y="159.00" text-anchor="end" font-size="13" fill="#333">0.99</text>
<line x1="90" y1="60.00" x2="730" y2="60.00" stroke="#d7ded9" stroke-width="1" /><line x1="84" y1="60.00" x2="90" y2="60.00" stroke="#555" stroke-width="1.5" /><text x="78" y="64.00" text-anchor="end" font-size="13" fill="#333">1.55</text>
  <line x1="90" y1="321.63" x2="730" y2="321.63" stroke="#555" stroke-width="1.5" />
  <line x1="123.28" y1="60" x2="123.28" y2="440" stroke="#555" stroke-width="1.5" />
  <polyline fill="none" stroke="#0f4c81" stroke-width="3" points="213.17,408.33 143.33,321.43 213.91,234.33 356.71,166.55 514.78,122.12 676.67,91.67" />
  <circle cx="213.17" cy="408.33" r="4.5" fill="#0f4c81" />
<text x="221.17" y="400.33" font-size="12" fill="#0f4c81">AOA=-2 deg</text>
<circle cx="143.33" cy="321.43" r="4.5" fill="#0f4c81" />
<text x="151.33" y="313.43" font-size="12" fill="#0f4c81">AOA=0 deg</text>
<circle cx="213.91" cy="234.33" r="4.5" fill="#0f4c81" />
<text x="221.91" y="226.33" font-size="12" fill="#0f4c81">AOA=2 deg</text>
<circle cx="356.71" cy="166.55" r="4.5" fill="#0f4c81" />
<text x="364.71" y="158.55" font-size="12" fill="#0f4c81">AOA=4 deg</text>
<circle cx="514.78" cy="122.12" r="4.5" fill="#0f4c81" />
<text x="522.78" y="114.12" font-size="12" fill="#0f4c81">AOA=6 deg</text>
<circle cx="676.67" cy="91.67" r="4.5" fill="#0f4c81" />
<text x="684.67" y="83.67" font-size="12" fill="#0f4c81">AOA=8 deg</text>
  <text x="380.00" y="496" text-anchor="middle" font-size="16" fill="#1f2a2a">Drag Coefficient, CD</text>
  <text x="24" y="260.00" text-anchor="middle" font-size="16" fill="#1f2a2a"
        transform="rotate(-90 24 260.00)">Lift Coefficient, CL</text>
</svg>
