<?xml version="1.0" encoding="utf-8" standalone="no"?>
<!DOCTYPE svg PUBLIC "-//W3C//DTD SVG 1.1//EN"
  "http://www.w3.org/Graphics/SVG/1.1/DTD/svg11.dtd">
<svg xmlns:xlink="http://www.w3.org/1999/xlink" width="648pt" height="403.2pt" viewBox="0 0 648 403.2" xmlns="http://www.w3.org/2000/svg" version="1.1">
 <metadata>
  <rdf:RDF xmlns:dc="http://purl.org/dc/elements/1.1/" xmlns:cc="http://creativecommons.org/ns#" xmlns:rdf="http://www.w3.org/1999/02/22-rdf-syntax-ns#">
   <cc:Work>
    <dc:type rdf:resource="http://purl.org/dc/dcmitype/StillImage"/>
    <dc:date>2026-03-09T07:57:41.327517</dc:date>
    <dc:format>image/svg+xml</dc:format>
    <dc:creator>
     <cc:Agent>
      <dc:title>Matplotlib v3.9.3, https://matplotlib.org/</dc:title>
     </cc:Agent>
    </dc:creator>
   </cc:Work>
  </rdf:RDF>
 </metadata>
 <defs>
  <style type="text/css">*{stroke-linejoin: round; stroke-linecap: butt}</style>
 </defs>
 <g id="figure_1">
  <g id="patch_1">
   <path d="M 0 403.2 
L 648 403.2 
L 648 0 
L 0 0 
z
" style="fill: #ffffff"/>
  </g>
  <g id="axes_1">
   <g id="patch_2">
    <path d="M 39.58149 369.84351 
L 642.832155 369.84351 
L 642.832155 18.118365 
L 39.58149 18.118365 
z
" style="fill: #ffffff"/>
   </g>
   <g id="matplotlib.axis_1">
    <g id="xtick_1">
     <g id="line2d_1">
      <path d="M 97.46918 369.84351 
L 97.46918 18.118365 
" clip-path="url(#p21f56c1aed)" style="fill: none; stroke: #b0b0b0; stroke-opacity: 0.25; stroke-width: 0.8; stroke-linecap: square"/>
     </g>
     <g id="line2d_2">
      <defs>
       <path id="m4792372ff3" d="M 0 0 
L 0 3.5 
" style="stroke: #000000; stroke-width: 0.8"/>
      </defs>
      <g>
       <use xlink:href="#m4792372ff3" x="97.46918" y="369.84351" style="stroke: #000000; stroke-width: 0.8"/>
      </g>
     </g>
     <g id="text_1">
      <!-- −0.050 -->
      <g transform="translate(78.965274 384.441947) scale(0.1 -0.1)">
       <defs>
        <path id="DejaVuSans-2212" d="M 678 2272 
L 4684 2272 
L 4684 1741 
L 678 1741 
L 678 2272 
z
" transform="scale(0.015625)"/>
        <path id="DejaVuSans-30" d="M 2034 4250 
Q 1547 4250 1301 3770 
Q 1056 3291 1056 2328 
Q 1056 1369 1301 889 
Q 1547 409 2034 409 
Q 2525 409 2770 889 
Q 3016 1369 3016 2328 
Q 3016 3291 2770 3770 
Q 2525 4250 2034 4250 
z
M 2034 4750 
Q 2819 4750 3233 4129 
Q 3647 3509 3647 2328 
Q 3647 1150 3233 529 
Q 2819 -91 2034 -91 
Q 1250 -91 836 529 
Q 422 1150 422 2328 
Q 422 3509 836 4129 
Q 1250 4750 2034 4750 
z
" transform="scale(0.015625)"/>
        <path id="DejaVuSans-2e" d="M 684 794 
L 1344 794 
L 1344 0 
L 684 0 
L 684 794 
z
" transform="scale(0.015625)"/>
        <path id="DejaVuSans-35" d="M 691 4666 
L 3169 4666 
L 3169 4134 
L 1269 4134 
L 1269 2991 
Q 1406 3038 1543 3061 
Q 1681 3084 1819 3084 
Q 2600 3084 3056 2656 
Q 3513 2228 3513 1497 
Q 3513 744 3044 326 
Q 2575 -91 1722 -91 
Q 1428 -91 1123 -41 
Q 819 9 494 109 
L 494 744 
Q 775 591 1075 516 
Q 1375 441 1709 441 
Q 2250 441 2565 725 
Q 2881 1009 2881 1497 
Q 2881 1984 2565 2268 
Q 2250 2553 1709 2553 
Q 1456 2553 1204 2497 
Q 953 2441 691 2322 
L 691 4666 
z
" transform="scale(0.015625)"/>
       </defs>
       <use xlink:href="#DejaVuSans-2212"/>
       <use xlink:href="#DejaVuSans-30" x="83.789062"/>
       <use xlink:href="#DejaVuSans-2e" x="147.412109"/>
       <use xlink:href="#DejaVuSans-30" x="179.199219"/>
       <use xlink:href="#DejaVuSans-35" x="242.822266"/>
       <use xlink:href="#DejaVuSans-30" x="306.445312"/>
      </g>
     </g>
    </g>
    <g id="xtick_2">
     <g id="line2d_3">
      <path d="M 173.637193 369.84351 
L 173.637193 18.118365 
" clip-path="url(#p21f56c1aed)" style="fill: none; stroke: #b0b0b0; stroke-opacity: 0.25; stroke-width: 0.8; stroke-linecap: square"/>
     </g>
     <g id="line2d_4">
      <g>
       <use xlink:href="#m4792372ff3" x="173.637193" y="369.84351" style="stroke: #000000; stroke-width: 0.8"/>
      </g>
     </g>
     <g id="text_2">
      <!-- −0.025 -->
      <g transform="translate(155.133287 384.441947) scale(0.1 -0.1)">
       <defs>
        <path id="DejaVuSans-32" d="M 1228 531 
L 3431 531 
L 3431 0 
L 469 0 
L 469 531 
Q 828 903 1448 1529 
Q 2069 2156 2228 2338 
Q 2531 2678 2651 2914 
Q 2772 3150 2772 3378 
Q 2772 3750 2511 3984 
Q 2250 4219 1831 4219 
Q 1534 4219 1204 4116 
Q 875 4013 500 3803 
L 500 4441 
Q 881 4594 1212 4672 
Q 1544 4750 1819 4750 
Q 2544 4750 2975 4387 
Q 3406 4025 3406 3419 
Q 3406 3131 3298 2873 
Q 3191 2616 2906 2266 
Q 2828 2175 2409 1742 
Q 1991 1309 1228 531 
z
" transform="scale(0.015625)"/>
       </defs>
       <use xlink:href="#DejaVuSans-2212"/>
       <use xlink:href="#DejaVuSans-30" x="83.789062"/>
       <use xlink:href="#DejaVuSans-2e" x="147.412109"/>
       <use xlink:href="#DejaVuSans-30" x="179.199219"/>
       <use xlink:href="#DejaVuSans-32" x="242.822266"/>
       <use xlink:href="#DejaVuSans-35" x="306.445312"/>
      </g>
     </g>
    </g>
    <g id="xtick_3">
     <g id="line2d_5">
      <path d="M 249.805207 369.84351 
L 249.805207 18.118365 
" clip-path="url(#p21f56c1aed)" style="fill: none; stroke: #b0b0b0; stroke-opacity: 0.25; stroke-width: 0.8; stroke-linecap: square"/>
     </g>
     <g id="line2d_6">
      <g>
       <use xlink:href="#m4792372ff3" x="249.805207" y="369.84351" style="stroke: #000000; stroke-width: 0.8"/>
      </g>
     </g>
     <g id="text_3">
      <!-- 0.000 -->
      <g transform="translate(235.491144 384.441947) scale(0.1 -0.1)">
       <use xlink:href="#DejaVuSans-30"/>
       <use xlink:href="#DejaVuSans-2e" x="63.623047"/>
       <use xlink:href="#DejaVuSans-30" x="95.410156"/>
       <use xlink:href="#DejaVuSans-30" x="159.033203"/>
       <use xlink:href="#DejaVuSans-30" x="222.65625"/>
      </g>
     </g>
    </g>
    <g id="xtick_4">
     <g id="line2d_7">
      <path d="M 325.97322 369.84351 
L 325.97322 18.118365 
" clip-path="url(#p21f56c1aed)" style="fill: none; stroke: #b0b0b0; stroke-opacity: 0.25; stroke-width: 0.8; stroke-linecap: square"/>
     </g>
     <g id="line2d_8">
      <g>
       <use xlink:href="#m4792372ff3" x="325.97322" y="369.84351" style="stroke: #000000; stroke-width: 0.8"/>
      </g>
     </g>
     <g id="text_4">
      <!-- 0.025 -->
      <g transform="translate(311.659157 384.441947) scale(0.1 -0.1)">
       <use xlink:href="#DejaVuSans-30"/>
       <use xlink:href="#DejaVuSans-2e" x="63.623047"/>
       <use xlink:href="#DejaVuSans-30" x="95.410156"/>
       <use xlink:href="#DejaVuSans-32" x="159.033203"/>
       <use xlink:href="#DejaVuSans-35" x="222.65625"/>
      </g>
     </g>
    </g>
    <g id="xtick_5">
     <g id="line2d_9">
      <path d="M 402.141233 369.84351 
L 402.141233 18.118365 
" clip-path="url(#p21f56c1aed)" style="fill: none; stroke: #b0b0b0; stroke-opacity: 0.25; stroke-width: 0.8; stroke-linecap: square"/>
     </g>
     <g id="line2d_10">
      <g>
       <use xlink:href="#m4792372ff3" x="402.141233" y="369.84351" style="stroke: #000000; stroke-width: 0.8"/>
      </g>
     </g>
     <g id="text_5">
      <!-- 0.050 -->
      <g transform="translate(387.827171 384.441947) scale(0.1 -0.1)">
       <use xlink:href="#DejaVuSans-30"/>
       <use xlink:href="#DejaVuSans-2e" x="63.623047"/>
       <use xlink:href="#DejaVuSans-30" x="95.410156"/>
       <use xlink:href="#DejaVuSans-35" x="159.033203"/>
       <use xlink:href="#DejaVuSans-30" x="222.65625"/>
      </g>
     </g>
    </g>
    <g id="xtick_6">
     <g id="line2d_11">
      <path d="M 478.309247 369.84351 
L 478.309247 18.118365 
" clip-path="url(#p21f56c1aed)" style="fill: none; stroke: #b0b0b0; stroke-opacity: 0.25; stroke-width: 0.8; stroke-linecap: square"/>
     </g>
     <g id="line2d_12">
      <g>
       <use xlink:href="#m4792372ff3" x="478.309247" y="369.84351" style="stroke: #000000; stroke-width: 0.8"/>
      </g>
     </g>
     <g id="text_6">
      <!-- 0.075 -->
      <g transform="translate(463.995184 384.441947) scale(0.1 -0.1)">
       <defs>
        <path id="DejaVuSans-37" d="M 525 4666 
L 3525 4666 
L 3525 4397 
L 1831 0 
L 1172 0 
L 2766 4134 
L 525 4134 
L 525 4666 
z
" transform="scale(0.015625)"/>
       </defs>
       <use xlink:href="#DejaVuSans-30"/>
       <use xlink:href="#DejaVuSans-2e" x="63.623047"/>
       <use xlink:href="#DejaVuSans-30" x="95.410156"/>
       <use xlink:href="#DejaVuSans-37" x="159.033203"/>
       <use xlink:href="#DejaVuSans-35" x="222.65625"/>
      </g>
     </g>
    </g>
    <g id="xtick_7">
     <g id="line2d_13">
      <path d="M 554.47726 369.84351 
L 554.47726 18.118365 
" clip-path="url(#p21f56c1aed)" style="fill: none; stroke: #b0b0b0; stroke-opacity: 0.25; stroke-width: 0.8; stroke-linecap: square"/>
     </g>
     <g id="line2d_14">
      <g>
       <use xlink:href="#m4792372ff3" x="554.47726" y="369.84351" style="stroke: #000000; stroke-width: 0.8"/>
      </g>
     </g>
     <g id="text_7">
      <!-- 0.100 -->
      <g transform="translate(540.163197 384.441947) scale(0.1 -0.1)">
       <defs>
        <path id="DejaVuSans-31" d="M 794 531 
L 1825 531 
L 1825 4091 
L 703 3866 
L 703 4441 
L 1819 4666 
L 2450 4666 
L 2450 531 
L 3481 531 
L 3481 0 
L 794 0 
L 794 531 
z
" transform="scale(0.015625)"/>
       </defs>
       <use xlink:href="#DejaVuSans-30"/>
       <use xlink:href="#DejaVuSans-2e" x="63.623047"/>
       <use xlink:href="#DejaVuSans-31" x="95.410156"/>
       <use xlink:href="#DejaVuSans-30" x="159.033203"/>
       <use xlink:href="#DejaVuSans-30" x="222.65625"/>
      </g>
     </g>
    </g>
    <g id="xtick_8">
     <g id="line2d_15">
      <path d="M 630.645273 369.84351 
L 630.645273 18.118365 
" clip-path="url(#p21f56c1aed)" style="fill: none; stroke: #b0b0b0; stroke-opacity: 0.25; stroke-width: 0.8; stroke-linecap: square"/>
     </g>
     <g id="line2d_16">
      <g>
       <use xlink:href="#m4792372ff3" x="630.645273" y="369.84351" style="stroke: #000000; stroke-width: 0.8"/>
      </g>
     </g>
     <g id="text_8">
      <!-- 0.125 -->
      <g transform="translate(616.331211 384.441947) scale(0.1 -0.1)">
       <use xlink:href="#DejaVuSans-30"/>
       <use xlink:href="#DejaVuSans-2e" x="63.623047"/>
       <use xlink:href="#DejaVuSans-31" x="95.410156"/>
       <use xlink:href="#DejaVuSans-32" x="159.033203"/>
       <use xlink:href="#DejaVuSans-35" x="222.65625"/>
      </g>
     </g>
    </g>
    <g id="text_9">
     <!-- x (m) -->
     <g transform="translate(327.88651 398.120072) scale(0.1 -0.1)">
      <defs>
       <path id="DejaVuSans-78" d="M 3513 3500 
L 2247 1797 
L 3578 0 
L 2900 0 
L 1881 1375 
L 863 0 
L 184 0 
L 1544 1831 
L 300 3500 
L 978 3500 
L 1906 2253 
L 2834 3500 
L 3513 3500 
z
" transform="scale(0.015625)"/>
       <path id="DejaVuSans-20" transform="scale(0.015625)"/>
       <path id="DejaVuSans-28" d="M 1984 4856 
Q 1566 4138 1362 3434 
Q 1159 2731 1159 2009 
Q 1159 1288 1364 580 
Q 1569 -128 1984 -844 
L 1484 -844 
Q 1016 -109 783 600 
Q 550 1309 550 2009 
Q 550 2706 781 3412 
Q 1013 4119 1484 4856 
L 1984 4856 
z
" transform="scale(0.015625)"/>
       <path id="DejaVuSans-6d" d="M 3328 2828 
Q 3544 3216 3844 3400 
Q 4144 3584 4550 3584 
Q 5097 3584 5394 3201 
Q 5691 2819 5691 2113 
L 5691 0 
L 5113 0 
L 5113 2094 
Q 5113 2597 4934 2840 
Q 4756 3084 4391 3084 
Q 3944 3084 3684 2787 
Q 3425 2491 3425 1978 
L 3425 0 
L 2847 0 
L 2847 2094 
Q 2847 2600 2669 2842 
Q 2491 3084 2119 3084 
Q 1678 3084 1418 2786 
Q 1159 2488 1159 1978 
L 1159 0 
L 581 0 
L 581 3500 
L 1159 3500 
L 1159 2956 
Q 1356 3278 1631 3431 
Q 1906 3584 2284 3584 
Q 2666 3584 2933 3390 
Q 3200 3197 3328 2828 
z
" transform="scale(0.015625)"/>
       <path id="DejaVuSans-29" d="M 513 4856 
L 1013 4856 
Q 1481 4119 1714 3412 
Q 1947 2706 1947 2009 
Q 1947 1309 1714 600 
Q 1481 -109 1013 -844 
L 513 -844 
Q 928 -128 1133 580 
Q 1338 1288 1338 2009 
Q 1338 2731 1133 3434 
Q 928 4138 513 4856 
z
" transform="scale(0.015625)"/>
      </defs>
      <use xlink:href="#DejaVuSans-78"/>
      <use xlink:href="#DejaVuSans-20" x="59.179688"/>
      <use xlink:href="#DejaVuSans-28" x="90.966797"/>
      <use xlink:href="#DejaVuSans-6d" x="129.980469"/>
      <use xlink:href="#DejaVuSans-29" x="227.392578"/>
     </g>
    </g>
   </g>
   <g id="matplotlib.axis_2">
    <g id="ytick_1">
     <g id="line2d_17">
      <path d="M 39.58149 361.376482 
L 642.832155 361.376482 
" clip-path="url(#p21f56c1aed)" style="fill: none; stroke: #b0b0b0; stroke-opacity: 0.25; stroke-width: 0.8; stroke-linecap: square"/>
     </g>
     <g id="line2d_18">
      <defs>
       <path id="m05ead4f623" d="M 0 0 
L -3.5 0 
" style="stroke: #000000; stroke-width: 0.8"/>
      </defs>
      <g>
       <use xlink:href="#m05ead4f623" x="39.58149" y="361.376482" style="stroke: #000000; stroke-width: 0.8"/>
      </g>
     </g>
     <g id="text_10">
      <!-- 0.0 -->
      <g transform="translate(16.678365 365.175701) scale(0.1 -0.1)">
       <use xlink:href="#DejaVuSans-30"/>
       <use xlink:href="#DejaVuSans-2e" x="63.623047"/>
       <use xlink:href="#DejaVuSans-30" x="95.410156"/>
      </g>
     </g>
    </g>
    <g id="ytick_2">
     <g id="line2d_19">
      <path d="M 39.58149 299.035395 
L 642.832155 299.035395 
" clip-path="url(#p21f56c1aed)" style="fill: none; stroke: #b0b0b0; stroke-opacity: 0.25; stroke-width: 0.8; stroke-linecap: square"/>
     </g>
     <g id="line2d_20">
      <g>
       <use xlink:href="#m05ead4f623" x="39.58149" y="299.035395" style="stroke: #000000; stroke-width: 0.8"/>
      </g>
     </g>
     <g id="text_11">
      <!-- 0.2 -->
      <g transform="translate(16.678365 302.834614) scale(0.1 -0.1)">
       <use xlink:href="#DejaVuSans-30"/>
       <use xlink:href="#DejaVuSans-2e" x="63.623047"/>
       <use xlink:href="#DejaVuSans-32" x="95.410156"/>
      </g>
     </g>
    </g>
    <g id="ytick_3">
     <g id="line2d_21">
      <path d="M 39.58149 236.694309 
L 642.832155 236.694309 
" clip-path="url(#p21f56c1aed)" style="fill: none; stroke: #b0b0b0; stroke-opacity: 0.25; stroke-width: 0.8; stroke-linecap: square"/>
     </g>
     <g id="line2d_22">
      <g>
       <use xlink:href="#m05ead4f623" x="39.58149" y="236.694309" style="stroke: #000000; stroke-width: 0.8"/>
      </g>
     </g>
     <g id="text_12">
      <!-- 0.4 -->
      <g transform="translate(16.678365 240.493527) scale(0.1 -0.1)">
       <defs>
        <path id="DejaVuSans-34" d="M 2419 4116 
L 825 1625 
L 2419 1625 
L 2419 4116 
z
M 2253 4666 
L 3047 4666 
L 3047 1625 
L 3713 1625 
L 3713 1100 
L 3047 1100 
L 3047 0 
L 2419 0 
L 2419 1100 
L 313 1100 
L 313 1709 
L 2253 4666 
z
" transform="scale(0.015625)"/>
       </defs>
       <use xlink:href="#DejaVuSans-30"/>
       <use xlink:href="#DejaVuSans-2e" x="63.623047"/>
       <use xlink:href="#DejaVuSans-34" x="95.410156"/>
      </g>
     </g>
    </g>
    <g id="ytick_4">
     <g id="line2d_23">
      <path d="M 39.58149 174.353222 
L 642.832155 174.353222 
" clip-path="url(#p21f56c1aed)" style="fill: none; stroke: #b0b0b0; stroke-opacity: 0.25; stroke-width: 0.8; stroke-linecap: square"/>
     </g>
     <g id="line2d_24">
      <g>
       <use xlink:href="#m05ead4f623" x="39.58149" y="174.353222" style="stroke: #000000; stroke-width: 0.8"/>
      </g>
     </g>
     <g id="text_13">
      <!-- 0.6 -->
      <g transform="translate(16.678365 178.152441) scale(0.1 -0.1)">
       <defs>
        <path id="DejaVuSans-36" d="M 2113 2584 
Q 1688 2584 1439 2293 
Q 1191 2003 1191 1497 
Q 1191 994 1439 701 
Q 1688 409 2113 409 
Q 2538 409 2786 701 
Q 3034 994 3034 1497 
Q 3034 2003 2786 2293 
Q 2538 2584 2113 2584 
z
M 3366 4563 
L 3366 3988 
Q 3128 4100 2886 4159 
Q 2644 4219 2406 4219 
Q 1781 4219 1451 3797 
Q 1122 3375 1075 2522 
Q 1259 2794 1537 2939 
Q 1816 3084 2150 3084 
Q 2853 3084 3261 2657 
Q 3669 2231 3669 1497 
Q 3669 778 3244 343 
Q 2819 -91 2113 -91 
Q 1303 -91 875 529 
Q 447 1150 447 2328 
Q 447 3434 972 4092 
Q 1497 4750 2381 4750 
Q 2619 4750 2861 4703 
Q 3103 4656 3366 4563 
z
" transform="scale(0.015625)"/>
       </defs>
       <use xlink:href="#DejaVuSans-30"/>
       <use xlink:href="#DejaVuSans-2e" x="63.623047"/>
       <use xlink:href="#DejaVuSans-36" x="95.410156"/>
      </g>
     </g>
    </g>
    <g id="ytick_5">
     <g id="line2d_25">
      <path d="M 39.58149 112.012135 
L 642.832155 112.012135 
" clip-path="url(#p21f56c1aed)" style="fill: none; stroke: #b0b0b0; stroke-opacity: 0.25; stroke-width: 0.8; stroke-linecap: square"/>
     </g>
     <g id="line2d_26">
      <g>
       <use xlink:href="#m05ead4f623" x="39.58149" y="112.012135" style="stroke: #000000; stroke-width: 0.8"/>
      </g>
     </g>
     <g id="text_14">
      <!-- 0.8 -->
      <g transform="translate(16.678365 115.811354) scale(0.1 -0.1)">
       <defs>
        <path id="DejaVuSans-38" d="M 2034 2216 
Q 1584 2216 1326 1975 
Q 1069 1734 1069 1313 
Q 1069 891 1326 650 
Q 1584 409 2034 409 
Q 2484 409 2743 651 
Q 3003 894 3003 1313 
Q 3003 1734 2745 1975 
Q 2488 2216 2034 2216 
z
M 1403 2484 
Q 997 2584 770 2862 
Q 544 3141 544 3541 
Q 544 4100 942 4425 
Q 1341 4750 2034 4750 
Q 2731 4750 3128 4425 
Q 3525 4100 3525 3541 
Q 3525 3141 3298 2862 
Q 3072 2584 2669 2484 
Q 3125 2378 3379 2068 
Q 3634 1759 3634 1313 
Q 3634 634 3220 271 
Q 2806 -91 2034 -91 
Q 1263 -91 848 271 
Q 434 634 434 1313 
Q 434 1759 690 2068 
Q 947 2378 1403 2484 
z
M 1172 3481 
Q 1172 3119 1398 2916 
Q 1625 2713 2034 2713 
Q 2441 2713 2670 2916 
Q 2900 3119 2900 3481 
Q 2900 3844 2670 4047 
Q 2441 4250 2034 4250 
Q 1625 4250 1398 4047 
Q 1172 3844 1172 3481 
z
" transform="scale(0.015625)"/>
       </defs>
       <use xlink:href="#DejaVuSans-30"/>
       <use xlink:href="#DejaVuSans-2e" x="63.623047"/>
       <use xlink:href="#DejaVuSans-38" x="95.410156"/>
      </g>
     </g>
    </g>
    <g id="ytick_6">
     <g id="line2d_27">
      <path d="M 39.58149 49.671049 
L 642.832155 49.671049 
" clip-path="url(#p21f56c1aed)" style="fill: none; stroke: #b0b0b0; stroke-opacity: 0.25; stroke-width: 0.8; stroke-linecap: square"/>
     </g>
     <g id="line2d_28">
      <g>
       <use xlink:href="#m05ead4f623" x="39.58149" y="49.671049" style="stroke: #000000; stroke-width: 0.8"/>
      </g>
     </g>
     <g id="text_15">
      <!-- 1.0 -->
      <g transform="translate(16.678365 53.470267) scale(0.1 -0.1)">
       <use xlink:href="#DejaVuSans-31"/>
       <use xlink:href="#DejaVuSans-2e" x="63.623047"/>
       <use xlink:href="#DejaVuSans-30" x="95.410156"/>
      </g>
     </g>
    </g>
    <g id="text_16">
     <!-- $p_w / p_0$ -->
     <g transform="translate(10.578365 207.380937) rotate(-90) scale(0.1 -0.1)">
      <defs>
       <path id="DejaVuSans-Oblique-70" d="M 3175 2156 
Q 3175 2616 2975 2859 
Q 2775 3103 2400 3103 
Q 2144 3103 1911 2972 
Q 1678 2841 1497 2591 
Q 1319 2344 1212 1994 
Q 1106 1644 1106 1300 
Q 1106 863 1306 627 
Q 1506 391 1875 391 
Q 2147 391 2380 519 
Q 2613 647 2778 891 
Q 2956 1147 3065 1494 
Q 3175 1841 3175 2156 
z
M 1394 2969 
Q 1625 3272 1939 3428 
Q 2253 3584 2638 3584 
Q 3175 3584 3472 3232 
Q 3769 2881 3769 2247 
Q 3769 1728 3584 1258 
Q 3400 788 3053 416 
Q 2822 169 2531 39 
Q 2241 -91 1919 -91 
Q 1547 -91 1294 64 
Q 1041 219 916 525 
L 556 -1331 
L -19 -1331 
L 922 3500 
L 1497 3500 
L 1394 2969 
z
" transform="scale(0.015625)"/>
       <path id="DejaVuSans-Oblique-77" d="M 544 3500 
L 1113 3500 
L 1259 684 
L 2566 3500 
L 3231 3500 
L 3425 684 
L 4666 3500 
L 5241 3500 
L 3641 0 
L 2969 0 
L 2797 2900 
L 1459 0 
L 781 0 
L 544 3500 
z
" transform="scale(0.015625)"/>
       <path id="DejaVuSans-2f" d="M 1625 4666 
L 2156 4666 
L 531 -594 
L 0 -594 
L 1625 4666 
z
" transform="scale(0.015625)"/>
      </defs>
      <use xlink:href="#DejaVuSans-Oblique-70" transform="translate(0 0.09375)"/>
      <use xlink:href="#DejaVuSans-Oblique-77" transform="translate(63.476562 -16.3125) scale(0.7)"/>
      <use xlink:href="#DejaVuSans-2f" transform="translate(123.461914 0.09375)"/>
      <use xlink:href="#DejaVuSans-Oblique-70" transform="translate(157.15332 0.09375)"/>
      <use xlink:href="#DejaVuSans-30" transform="translate(220.629883 -16.3125) scale(0.7)"/>
     </g>
    </g>
   </g>
   <g id="line2d_29">
    <path d="M 67.001975 49.835175 
L 67.331306 49.789276 
L 69.960483 49.734786 
L 77.501377 49.839768 
L 87.774181 50.212473 
L 103.50637 50.959274 
L 117.923371 51.453581 
L 125.918525 51.481174 
L 137.345273 51.266836 
L 149.596223 51.034048 
L 156.012064 51.104993 
L 162.611021 51.505395 
L 165.976636 51.886642 
L 169.384965 52.422803 
L 172.834957 53.139166 
L 176.32555 54.063751 
L 179.855668 55.23173 
L 183.424225 56.691825 
L 187.030121 58.512225 
L 190.672246 60.784509 
L 194.349477 63.626656 
L 198.060681 67.178836 
L 201.804717 71.602772 
L 205.58043 77.077174 
L 209.386657 83.799053 
L 213.222227 91.949386 
L 217.085957 101.683109 
L 220.976658 113.017216 
L 224.893131 126.069559 
L 228.834169 140.898344 
L 232.79856 157.618323 
L 236.785081 175.495128 
L 240.792505 194.153257 
L 244.819597 214.54495 
L 248.865117 264.631502 
L 252.927819 302.944747 
L 257.006451 313.230769 
L 261.099758 313.456059 
L 265.206478 313.14275 
L 269.325346 312.95268 
L 273.455093 313.055603 
L 277.594449 313.404402 
L 281.742136 313.982097 
L 285.896879 314.729759 
L 294.222409 316.575858 
L 306.731572 319.792378 
L 327.550216 325.226233 
L 339.967007 328.19722 
L 352.285901 330.848383 
L 364.472756 333.200316 
L 376.493793 335.274919 
L 388.315695 337.099187 
L 399.905695 338.694621 
L 414.942876 340.498255 
L 429.436684 341.981057 
L 443.315716 343.199731 
L 459.696129 344.418651 
L 477.767095 345.531841 
L 496.412878 346.447068 
L 516.103948 347.19648 
L 538.63968 347.807137 
L 542.290378 347.895179 
L 542.290378 347.895179 
" clip-path="url(#p21f56c1aed)" style="fill: none; stroke: #bd4f2c; stroke-width: 2; stroke-linecap: square"/>
   </g>
   <g id="line2d_30">
    <path d="M 67.001975 49.85878 
L 67.148363 50.129833 
L 67.587348 50.392114 
L 68.793161 50.770171 
L 70.652672 51.114397 
L 75.189708 51.622589 
L 86.102322 52.398289 
L 123.19731 54.880738 
L 128.694793 54.963444 
L 134.409047 54.746207 
L 140.333032 54.162813 
L 146.459451 53.449311 
L 149.596223 53.175382 
L 152.780754 53.009286 
L 156.012064 52.964708 
L 159.289156 53.039292 
L 162.611021 53.252766 
L 165.976636 53.60358 
L 169.384965 54.107419 
L 172.834957 54.802732 
L 176.32555 55.737725 
L 179.855668 56.968973 
L 183.424225 58.555143 
L 187.030121 60.55209 
L 190.672246 63.01504 
L 194.349477 66.00901 
L 198.060681 69.622617 
L 201.804717 73.976861 
L 205.58043 79.243763 
L 209.386657 85.642711 
L 213.222227 93.378806 
L 217.085957 102.658975 
L 220.976658 113.585924 
L 224.893131 126.347609 
L 228.834169 141.101334 
L 232.79856 157.531066 
L 236.785081 175.080169 
L 240.792505 193.466582 
L 244.819597 213.920534 
L 248.865117 264.192108 
L 252.927819 302.317073 
L 257.006451 312.316055 
L 261.099758 312.159914 
L 265.206478 311.600619 
L 269.325346 311.182278 
L 273.455093 311.14358 
L 277.594449 311.374491 
L 281.742136 311.916759 
L 285.896879 312.674531 
L 294.222409 314.584282 
L 306.731572 317.91656 
L 323.395473 322.423195 
L 335.837259 325.541225 
L 348.192595 328.334401 
L 360.427236 330.80486 
L 372.507272 332.9708 
L 384.399222 334.865381 
L 396.070126 336.525692 
L 411.231671 338.41837 
L 425.868127 339.98941 
L 439.907388 341.284399 
L 456.511598 342.592085 
L 474.883306 343.81433 
L 496.412878 345.005556 
L 538.63968 347.225829 
L 541.705005 347.621396 
L 542.253778 347.822278 
L 542.290378 347.897867 
L 542.290378 347.897867 
" clip-path="url(#p21f56c1aed)" style="fill: none; stroke-dasharray: 7.4,3.2; stroke-dashoffset: 0; stroke: #bd4f2c; stroke-width: 2"/>
   </g>
   <g id="line2d_31">
    <path d="M 67.001975 34.105872 
L 67.148363 35.258222 
L 67.587348 36.271251 
L 68.318387 37.322128 
L 69.340582 38.398564 
L 70.652672 39.481223 
L 73.160728 41.10408 
L 76.310376 42.723918 
L 80.092888 44.318212 
L 84.49778 45.84269 
L 91.317768 47.892385 
L 101.316226 50.657126 
L 110.445745 52.959946 
L 115.372273 53.956959 
L 117.923371 54.313106 
L 120.531985 54.496244 
L 123.19731 54.482621 
L 125.918525 54.270555 
L 128.694793 53.803884 
L 131.525257 53.101851 
L 134.409047 52.271895 
L 137.345273 51.562749 
L 140.333032 51.259226 
L 143.371403 51.566602 
L 146.459451 52.590103 
L 149.596223 54.582232 
L 152.780754 57.517647 
L 156.012064 61.217427 
L 162.611021 69.871345 
L 169.384965 78.734706 
L 176.32555 87.768764 
L 179.855668 92.764517 
L 183.424225 98.291259 
L 187.030121 104.460073 
L 190.672246 111.371162 
L 194.349477 119.059964 
L 198.060681 127.510497 
L 201.804717 136.588583 
L 220.976658 184.472764 
L 224.893131 194.249465 
L 228.834169 204.456603 
L 232.79856 215.564545 
L 236.785081 227.621335 
L 240.792505 241.131835 
L 244.819597 258.057828 
L 248.865117 293.314166 
L 252.927819 317.662292 
L 257.006451 321.594308 
L 265.206478 318.784648 
L 269.325346 317.961406 
L 273.455093 317.683274 
L 277.594449 317.638135 
L 285.896879 317.967728 
L 298.390631 318.853948 
L 310.901721 319.969837 
L 327.550216 321.545815 
L 348.192595 323.246343 
L 364.472756 324.51213 
L 368.499848 324.879514 
L 372.507272 324.886063 
L 376.493793 324.152385 
L 380.458183 321.992345 
L 388.315695 314.032735 
L 392.206395 312.223991 
L 396.070126 311.657053 
L 403.711923 311.180355 
L 411.231671 310.415834 
L 418.620107 309.289661 
L 425.868127 307.824765 
L 432.966803 306.052527 
L 439.907388 304.034552 
L 446.681332 301.822399 
L 453.280289 299.449728 
L 462.832902 295.700179 
L 474.883306 290.851668 
L 480.59756 288.740771 
L 483.373827 287.823087 
L 486.095043 287.043867 
L 488.760368 286.442674 
L 491.368981 286.010151 
L 493.92008 285.729949 
L 496.412878 285.590753 
L 501.22052 285.628821 
L 505.785982 286.004764 
L 510.103641 286.352078 
L 512.16787 286.325525 
L 514.168178 285.991064 
L 516.103948 285.251443 
L 517.974585 283.94466 
L 519.779511 282.074817 
L 523.19003 277.976351 
L 524.794573 276.540953 
L 526.331305 275.57551 
L 534.102645 271.817456 
L 536.131625 270.646879 
L 537.875416 269.382763 
L 539.33187 267.97933 
L 540.499192 266.453966 
L 541.375944 264.867515 
L 541.961046 263.307276 
L 542.253778 261.851662 
L 542.290378 261.276961 
L 542.290378 261.276961 
" clip-path="url(#p21f56c1aed)" style="fill: none; stroke-dasharray: 2,3.3; stroke-dashoffset: 0; stroke: #bd4f2c; stroke-width: 2"/>
   </g>
   <g id="line2d_32">
    <path d="M 384.399222 369.84351 
L 384.399222 18.118365 
" clip-path="url(#p21f56c1aed)" style="fill: none; stroke-dasharray: 1.5,2.475; stroke-dashoffset: 0; stroke: #bd4f2c; stroke-opacity: 0.2; stroke-width: 1.5"/>
   </g>
   <g id="line2d_33">
    <path d="M 67.001975 49.789966 
L 67.170884 49.685455 
L 68.057091 49.527311 
L 71.214318 49.271493 
L 77.742438 49.000091 
L 89.040837 48.813771 
L 106.595341 48.866914 
L 117.129402 49.139688 
L 125.757432 49.583337 
L 131.842746 50.054971 
L 138.185995 50.747988 
L 144.779366 51.744598 
L 151.614733 53.099988 
L 158.683678 54.83827 
L 165.97749 56.934436 
L 173.487184 59.391261 
L 177.320105 60.810654 
L 181.203507 62.433136 
L 185.136194 64.349779 
L 189.116954 66.677937 
L 193.144561 69.559502 
L 197.217775 73.15939 
L 201.335341 77.664503 
L 205.49599 83.290206 
L 209.698441 90.299082 
L 213.9414 98.95651 
L 218.223559 109.488245 
L 222.5436 121.903953 
L 226.900192 136.320073 
L 231.291993 153.428393 
L 235.71765 172.321048 
L 240.175801 192.552251 
L 244.665071 214.394564 
L 249.184078 252.397691 
L 253.73143 279.417723 
L 258.305727 282.676021 
L 262.905559 282.000184 
L 267.529509 281.683574 
L 272.176154 281.699514 
L 276.844062 282.200181 
L 281.531795 283.289819 
L 286.237909 284.864206 
L 290.960955 286.812564 
L 295.699478 289.030663 
L 305.217112 293.951245 
L 324.373616 304.16812 
L 333.988886 308.947597 
L 343.613049 313.387322 
L 353.234247 317.452106 
L 362.840627 321.145435 
L 372.420355 324.487262 
L 381.961627 327.504012 
L 391.45269 330.222719 
L 400.88185 332.666777 
L 410.237491 334.856728 
L 419.508087 336.813218 
L 428.682215 338.558145 
L 437.748575 340.113269 
L 451.121652 342.134062 
L 464.190086 343.834426 
L 476.917655 345.266824 
L 493.296691 346.833901 
L 508.926462 348.08462 
L 527.293099 349.301485 
L 547.431035 350.375988 
L 570.692637 351.356412 
L 587.354986 351.902291 
L 595.224204 351.90397 
L 601.842014 351.627276 
L 613.892733 350.971509 
L 615.411671 351.017138 
L 615.411671 351.017138 
" clip-path="url(#p21f56c1aed)" style="fill: none; stroke: #0f4c81; stroke-width: 2; stroke-linecap: square"/>
   </g>
   <g id="line2d_34">
    <path d="M 67.001975 49.786959 
L 67.170884 49.72138 
L 68.520912 49.582815 
L 74.108228 49.269525 
L 79.11667 49.153969 
L 90.969905 49.02844 
L 99.450667 49.105263 
L 109.122431 49.434536 
L 122.813857 50.074691 
L 128.767371 50.490406 
L 134.98261 51.174226 
L 138.185995 51.690696 
L 141.451916 52.369351 
L 144.779366 53.246896 
L 148.167319 54.352556 
L 151.614733 55.698153 
L 155.120546 57.261834 
L 162.303031 60.711038 
L 165.97749 62.334096 
L 169.705924 63.771803 
L 177.320105 66.247961 
L 181.203507 67.511981 
L 185.136194 69.013898 
L 189.116954 70.95301 
L 193.144561 73.52167 
L 197.217775 76.894554 
L 201.335341 81.253592 
L 205.49599 86.798359 
L 209.698441 93.78407 
L 213.9414 102.465705 
L 218.223559 113.051441 
L 222.5436 125.561333 
L 226.900192 140.067594 
L 231.291993 157.207042 
L 235.71765 175.9849 
L 240.175801 196.03907 
L 244.665071 217.624183 
L 249.184078 254.989401 
L 253.73143 281.501837 
L 258.305727 284.398995 
L 267.529509 282.461085 
L 272.176154 282.273703 
L 276.844062 282.564593 
L 281.531795 283.45317 
L 286.237909 284.991691 
L 290.960955 287.004468 
L 295.699478 289.274358 
L 305.217112 294.214644 
L 319.573018 301.838677 
L 329.179399 306.718457 
L 338.800597 311.292223 
L 348.424759 315.530102 
L 358.040029 319.407783 
L 367.634561 322.926914 
L 377.196534 326.094489 
L 386.714167 328.927016 
L 396.175736 331.449592 
L 405.569583 333.692539 
L 414.884136 335.688479 
L 424.107919 337.469076 
L 433.229567 339.061883 
L 446.695995 341.146907 
L 459.870045 342.91893 
L 472.715204 344.425894 
L 489.269084 346.095785 
L 505.09354 347.455293 
L 523.729968 348.824383 
L 544.22765 350.109209 
L 573.291214 351.678991 
L 615.411671 353.856003 
L 615.411671 353.856003 
" clip-path="url(#p21f56c1aed)" style="fill: none; stroke-dasharray: 7.4,3.2; stroke-dashoffset: 0; stroke: #0f4c81; stroke-width: 2"/>
   </g>
   <g id="line2d_35">
    <path d="M 67.001975 44.416357 
L 67.170884 45.450442 
L 67.677405 46.349907 
L 68.520912 47.27286 
L 69.700368 48.20747 
L 71.214318 49.148517 
L 73.060897 50.034462 
L 75.237831 50.917587 
L 77.742438 51.759586 
L 80.571632 52.514838 
L 83.721927 53.171867 
L 87.189442 53.699766 
L 90.969905 53.921402 
L 95.058659 53.769073 
L 97.217086 53.492384 
L 99.450667 53.02975 
L 101.758714 52.345057 
L 104.140517 51.41258 
L 106.595341 50.176957 
L 109.122431 48.672198 
L 114.390273 45.284376 
L 117.129402 43.735346 
L 119.937551 42.521274 
L 122.813857 41.889962 
L 125.757432 41.762854 
L 128.767371 42.14318 
L 131.842746 43.087541 
L 134.98261 44.635726 
L 138.185995 46.724602 
L 141.451916 49.254469 
L 144.779366 52.114299 
L 151.614733 58.409441 
L 158.683678 65.156403 
L 165.97749 72.506687 
L 169.705924 76.55635 
L 173.487184 80.940583 
L 177.320105 85.701129 
L 181.203507 90.857791 
L 185.136194 96.417724 
L 189.116954 102.380217 
L 193.144561 108.749259 
L 197.217775 115.554648 
L 201.335341 122.836555 
L 205.49599 130.64136 
L 209.698441 138.99025 
L 213.9414 147.935251 
L 218.223559 157.659984 
L 222.5436 168.538527 
L 226.900192 180.93161 
L 231.291993 195.135517 
L 235.71765 211.144843 
L 240.175801 229.01288 
L 244.665071 249.34288 
L 249.184078 279.706379 
L 253.73143 299.053136 
L 258.305727 298.278795 
L 262.905559 296.353378 
L 267.529509 295.143196 
L 272.176154 295.409276 
L 276.844062 296.314274 
L 281.531795 297.705677 
L 300.452018 304.127799 
L 305.217112 305.51899 
L 309.993291 306.755398 
L 319.573018 308.928023 
L 324.373616 309.953456 
L 329.179399 310.834756 
L 333.988886 310.779188 
L 338.800597 309.960035 
L 343.613049 308.529418 
L 348.424759 306.76988 
L 353.234247 305.426785 
L 358.040029 304.847086 
L 367.634561 304.342075 
L 372.420355 303.775321 
L 377.196534 302.898121 
L 381.961627 301.873091 
L 386.714167 300.178317 
L 391.45269 296.135236 
L 396.175736 288.099178 
L 400.88185 279.573347 
L 405.569583 276.685173 
L 410.237491 277.52 
L 414.884136 279.242093 
L 419.508087 281.158283 
L 424.107919 282.805549 
L 428.682215 284.118642 
L 433.229567 285.193636 
L 442.237845 287.007324 
L 464.190086 291.056109 
L 476.917655 293.257739 
L 485.19587 294.497395 
L 493.296691 295.513432 
L 501.210138 296.318232 
L 508.926462 296.941205 
L 516.436155 297.320803 
L 523.729968 297.36213 
L 527.293099 297.244516 
L 530.798912 297.004246 
L 534.246326 296.635355 
L 537.63428 296.134542 
L 540.961729 295.495693 
L 544.22765 294.716372 
L 547.431035 293.800759 
L 550.570899 292.76023 
L 556.656213 290.373403 
L 562.476094 287.708637 
L 568.023373 285.128739 
L 570.692637 284.061107 
L 573.291214 283.23353 
L 575.818304 282.700268 
L 578.273129 282.483537 
L 580.654931 282.513863 
L 582.962979 282.859995 
L 585.196559 283.553654 
L 587.354986 284.500414 
L 593.372808 287.770632 
L 595.224204 287.8877 
L 596.997356 287.473146 
L 598.691719 286.126568 
L 600.30677 283.636016 
L 601.842014 280.806185 
L 603.296975 278.810859 
L 604.671207 277.710898 
L 608.305417 275.584419 
L 610.317484 273.973932 
L 613.344918 271.196871 
L 614.73624 269.670563 
L 615.242761 268.840149 
L 615.411671 268.101462 
L 615.411671 268.101462 
" clip-path="url(#p21f56c1aed)" style="fill: none; stroke-dasharray: 2,3.3; stroke-dashoffset: 0; stroke: #0f4c81; stroke-width: 2"/>
   </g>
   <g id="line2d_36">
    <path d="M 396.175736 369.84351 
L 396.175736 18.118365 
" clip-path="url(#p21f56c1aed)" style="fill: none; stroke-dasharray: 1.5,2.475; stroke-dashoffset: 0; stroke: #0f4c81; stroke-opacity: 0.2; stroke-width: 1.5"/>
   </g>
   <g id="patch_3">
    <path d="M 39.58149 369.84351 
L 39.58149 18.118365 
" style="fill: none; stroke: #000000; stroke-width: 0.8; stroke-linejoin: miter; stroke-linecap: square"/>
   </g>
   <g id="patch_4">
    <path d="M 642.832155 369.84351 
L 642.832155 18.118365 
" style="fill: none; stroke: #000000; stroke-width: 0.8; stroke-linejoin: miter; stroke-linecap: square"/>
   </g>
   <g id="patch_5">
    <path d="M 39.58149 369.84351 
L 642.832155 369.84351 
" style="fill: none; stroke: #000000; stroke-width: 0.8; stroke-linejoin: miter; stroke-linecap: square"/>
   </g>
   <g id="patch_6">
    <path d="M 39.58149 18.118365 
L 642.832155 18.118365 
" style="fill: none; stroke: #000000; stroke-width: 0.8; stroke-linejoin: miter; stroke-linecap: square"/>
   </g>
   <g id="text_17">
    <!-- Wall Pressure Distribution -->
    <g transform="translate(264.21651 12.118365) scale(0.12 -0.12)">
     <defs>
      <path id="DejaVuSans-57" d="M 213 4666 
L 850 4666 
L 1831 722 
L 2809 4666 
L 3519 4666 
L 4500 722 
L 5478 4666 
L 6119 4666 
L 4947 0 
L 4153 0 
L 3169 4050 
L 2175 0 
L 1381 0 
L 213 4666 
z
" transform="scale(0.015625)"/>
      <path id="DejaVuSans-61" d="M 2194 1759 
Q 1497 1759 1228 1600 
Q 959 1441 959 1056 
Q 959 750 1161 570 
Q 1363 391 1709 391 
Q 2188 391 2477 730 
Q 2766 1069 2766 1631 
L 2766 1759 
L 2194 1759 
z
M 3341 1997 
L 3341 0 
L 2766 0 
L 2766 531 
Q 2569 213 2275 61 
Q 1981 -91 1556 -91 
Q 1019 -91 701 211 
Q 384 513 384 1019 
Q 384 1609 779 1909 
Q 1175 2209 1959 2209 
L 2766 2209 
L 2766 2266 
Q 2766 2663 2505 2880 
Q 2244 3097 1772 3097 
Q 1472 3097 1187 3025 
Q 903 2953 641 2809 
L 641 3341 
Q 956 3463 1253 3523 
Q 1550 3584 1831 3584 
Q 2591 3584 2966 3190 
Q 3341 2797 3341 1997 
z
" transform="scale(0.015625)"/>
      <path id="DejaVuSans-6c" d="M 603 4863 
L 1178 4863 
L 1178 0 
L 603 0 
L 603 4863 
z
" transform="scale(0.015625)"/>
      <path id="DejaVuSans-50" d="M 1259 4147 
L 1259 2394 
L 2053 2394 
Q 2494 2394 2734 2622 
Q 2975 2850 2975 3272 
Q 2975 3691 2734 3919 
Q 2494 4147 2053 4147 
L 1259 4147 
z
M 628 4666 
L 2053 4666 
Q 2838 4666 3239 4311 
Q 3641 3956 3641 3272 
Q 3641 2581 3239 2228 
Q 2838 1875 2053 1875 
L 1259 1875 
L 1259 0 
L 628 0 
L 628 4666 
z
" transform="scale(0.015625)"/>
      <path id="DejaVuSans-72" d="M 2631 2963 
Q 2534 3019 2420 3045 
Q 2306 3072 2169 3072 
Q 1681 3072 1420 2755 
Q 1159 2438 1159 1844 
L 1159 0 
L 581 0 
L 581 3500 
L 1159 3500 
L 1159 2956 
Q 1341 3275 1631 3429 
Q 1922 3584 2338 3584 
Q 2397 3584 2469 3576 
Q 2541 3569 2628 3553 
L 2631 2963 
z
" transform="scale(0.015625)"/>
      <path id="DejaVuSans-65" d="M 3597 1894 
L 3597 1613 
L 953 1613 
Q 991 1019 1311 708 
Q 1631 397 2203 397 
Q 2534 397 2845 478 
Q 3156 559 3463 722 
L 3463 178 
Q 3153 47 2828 -22 
Q 2503 -91 2169 -91 
Q 1331 -91 842 396 
Q 353 884 353 1716 
Q 353 2575 817 3079 
Q 1281 3584 2069 3584 
Q 2775 3584 3186 3129 
Q 3597 2675 3597 1894 
z
M 3022 2063 
Q 3016 2534 2758 2815 
Q 2500 3097 2075 3097 
Q 1594 3097 1305 2825 
Q 1016 2553 972 2059 
L 3022 2063 
z
" transform="scale(0.015625)"/>
      <path id="DejaVuSans-73" d="M 2834 3397 
L 2834 2853 
Q 2591 2978 2328 3040 
Q 2066 3103 1784 3103 
Q 1356 3103 1142 2972 
Q 928 2841 928 2578 
Q 928 2378 1081 2264 
Q 1234 2150 1697 2047 
L 1894 2003 
Q 2506 1872 2764 1633 
Q 3022 1394 3022 966 
Q 3022 478 2636 193 
Q 2250 -91 1575 -91 
Q 1294 -91 989 -36 
Q 684 19 347 128 
L 347 722 
Q 666 556 975 473 
Q 1284 391 1588 391 
Q 1994 391 2212 530 
Q 2431 669 2431 922 
Q 2431 1156 2273 1281 
Q 2116 1406 1581 1522 
L 1381 1569 
Q 847 1681 609 1914 
Q 372 2147 372 2553 
Q 372 3047 722 3315 
Q 1072 3584 1716 3584 
Q 2034 3584 2315 3537 
Q 2597 3491 2834 3397 
z
" transform="scale(0.015625)"/>
      <path id="DejaVuSans-75" d="M 544 1381 
L 544 3500 
L 1119 3500 
L 1119 1403 
Q 1119 906 1312 657 
Q 1506 409 1894 409 
Q 2359 409 2629 706 
Q 2900 1003 2900 1516 
L 2900 3500 
L 3475 3500 
L 3475 0 
L 2900 0 
L 2900 538 
Q 2691 219 2414 64 
Q 2138 -91 1772 -91 
Q 1169 -91 856 284 
Q 544 659 544 1381 
z
M 1991 3584 
L 1991 3584 
z
" transform="scale(0.015625)"/>
      <path id="DejaVuSans-44" d="M 1259 4147 
L 1259 519 
L 2022 519 
Q 2988 519 3436 956 
Q 3884 1394 3884 2338 
Q 3884 3275 3436 3711 
Q 2988 4147 2022 4147 
L 1259 4147 
z
M 628 4666 
L 1925 4666 
Q 3281 4666 3915 4102 
Q 4550 3538 4550 2338 
Q 4550 1131 3912 565 
Q 3275 0 1925 0 
L 628 0 
L 628 4666 
z
" transform="scale(0.015625)"/>
      <path id="DejaVuSans-69" d="M 603 3500 
L 1178 3500 
L 1178 0 
L 603 0 
L 603 3500 
z
M 603 4863 
L 1178 4863 
L 1178 4134 
L 603 4134 
L 603 4863 
z
" transform="scale(0.015625)"/>
      <path id="DejaVuSans-74" d="M 1172 4494 
L 1172 3500 
L 2356 3500 
L 2356 3053 
L 1172 3053 
L 1172 1153 
Q 1172 725 1289 603 
Q 1406 481 1766 481 
L 2356 481 
L 2356 0 
L 1766 0 
Q 1100 0 847 248 
Q 594 497 594 1153 
L 594 3053 
L 172 3053 
L 172 3500 
L 594 3500 
L 594 4494 
L 1172 4494 
z
" transform="scale(0.015625)"/>
      <path id="DejaVuSans-62" d="M 3116 1747 
Q 3116 2381 2855 2742 
Q 2594 3103 2138 3103 
Q 1681 3103 1420 2742 
Q 1159 2381 1159 1747 
Q 1159 1113 1420 752 
Q 1681 391 2138 391 
Q 2594 391 2855 752 
Q 3116 1113 3116 1747 
z
M 1159 2969 
Q 1341 3281 1617 3432 
Q 1894 3584 2278 3584 
Q 2916 3584 3314 3078 
Q 3713 2572 3713 1747 
Q 3713 922 3314 415 
Q 2916 -91 2278 -91 
Q 1894 -91 1617 61 
Q 1341 213 1159 525 
L 1159 0 
L 581 0 
L 581 4863 
L 1159 4863 
L 1159 2969 
z
" transform="scale(0.015625)"/>
      <path id="DejaVuSans-6f" d="M 1959 3097 
Q 1497 3097 1228 2736 
Q 959 2375 959 1747 
Q 959 1119 1226 758 
Q 1494 397 1959 397 
Q 2419 397 2687 759 
Q 2956 1122 2956 1747 
Q 2956 2369 2687 2733 
Q 2419 3097 1959 3097 
z
M 1959 3584 
Q 2709 3584 3137 3096 
Q 3566 2609 3566 1747 
Q 3566 888 3137 398 
Q 2709 -91 1959 -91 
Q 1206 -91 779 398 
Q 353 888 353 1747 
Q 353 2609 779 3096 
Q 1206 3584 1959 3584 
z
" transform="scale(0.015625)"/>
      <path id="DejaVuSans-6e" d="M 3513 2113 
L 3513 0 
L 2938 0 
L 2938 2094 
Q 2938 2591 2744 2837 
Q 2550 3084 2163 3084 
Q 1697 3084 1428 2787 
Q 1159 2491 1159 1978 
L 1159 0 
L 581 0 
L 581 3500 
L 1159 3500 
L 1159 2956 
Q 1366 3272 1645 3428 
Q 1925 3584 2291 3584 
Q 2894 3584 3203 3211 
Q 3513 2838 3513 2113 
z
" transform="scale(0.015625)"/>
     </defs>
     <use xlink:href="#DejaVuSans-57"/>
     <use xlink:href="#DejaVuSans-61" x="92.501953"/>
     <use xlink:href="#DejaVuSans-6c" x="153.78125"/>
     <use xlink:href="#DejaVuSans-6c" x="181.564453"/>
     <use xlink:href="#DejaVuSans-20" x="209.347656"/>
     <use xlink:href="#DejaVuSans-50" x="241.134766"/>
     <use xlink:href="#DejaVuSans-72" x="299.6875"/>
     <use xlink:href="#DejaVuSans-65" x="338.550781"/>
     <use xlink:href="#DejaVuSans-73" x="400.074219"/>
     <use xlink:href="#DejaVuSans-73" x="452.173828"/>
     <use xlink:href="#DejaVuSans-75" x="504.273438"/>
     <use xlink:href="#DejaVuSans-72" x="567.652344"/>
     <use xlink:href="#DejaVuSans-65" x="606.515625"/>
     <use xlink:href="#DejaVuSans-20" x="668.039062"/>
     <use xlink:href="#DejaVuSans-44" x="699.826172"/>
     <use xlink:href="#DejaVuSans-69" x="776.828125"/>
     <use xlink:href="#DejaVuSans-73" x="804.611328"/>
     <use xlink:href="#DejaVuSans-74" x="856.710938"/>
     <use xlink:href="#DejaVuSans-72" x="895.919922"/>
     <use xlink:href="#DejaVuSans-69" x="937.033203"/>
     <use xlink:href="#DejaVuSans-62" x="964.816406"/>
     <use xlink:href="#DejaVuSans-75" x="1028.292969"/>
     <use xlink:href="#DejaVuSans-74" x="1091.671875"/>
     <use xlink:href="#DejaVuSans-69" x="1130.880859"/>
     <use xlink:href="#DejaVuSans-6f" x="1158.664062"/>
     <use xlink:href="#DejaVuSans-6e" x="1219.845703"/>
    </g>
   </g>
   <g id="legend_1">
    <g id="patch_7">
     <path d="M 45.18149 365.84351 
L 288.94149 365.84351 
Q 290.54149 365.84351 290.54149 364.24351 
L 290.54149 329.76351 
Q 290.54149 328.16351 288.94149 328.16351 
L 45.18149 328.16351 
Q 43.58149 328.16351 43.58149 329.76351 
L 43.58149 364.24351 
Q 43.58149 365.84351 45.18149 365.84351 
z
" style="fill: #ffffff; opacity: 0.8; stroke: #cccccc; stroke-linejoin: miter"/>
    </g>
    <g id="line2d_37">
     <path d="M 46.78149 334.64351 
L 54.78149 334.64351 
L 62.78149 334.64351 
" style="fill: none; stroke: #bd4f2c; stroke-width: 2; stroke-linecap: square"/>
    </g>
    <g id="text_18">
     <!-- bell80, $p_b$=40000 Pa -->
     <g transform="translate(69.18149 337.44351) scale(0.08 -0.08)">
      <defs>
       <path id="DejaVuSans-2c" d="M 750 794 
L 1409 794 
L 1409 256 
L 897 -744 
L 494 -744 
L 750 256 
L 750 794 
z
" transform="scale(0.015625)"/>
       <path id="DejaVuSans-Oblique-62" d="M 3169 2138 
Q 3169 2591 2961 2847 
Q 2753 3103 2388 3103 
Q 2122 3103 1889 2973 
Q 1656 2844 1484 2597 
Q 1303 2338 1198 1995 
Q 1094 1653 1094 1313 
Q 1094 881 1298 636 
Q 1503 391 1863 391 
Q 2134 391 2365 517 
Q 2597 644 2772 891 
Q 2950 1147 3059 1487 
Q 3169 1828 3169 2138 
z
M 1381 2969 
Q 1594 3256 1914 3420 
Q 2234 3584 2584 3584 
Q 3122 3584 3439 3221 
Q 3756 2859 3756 2241 
Q 3756 1734 3570 1259 
Q 3384 784 3041 416 
Q 2816 172 2522 40 
Q 2228 -91 1906 -91 
Q 1566 -91 1316 65 
Q 1066 222 909 531 
L 806 0 
L 231 0 
L 1178 4863 
L 1753 4863 
L 1381 2969 
z
" transform="scale(0.015625)"/>
       <path id="DejaVuSans-3d" d="M 678 2906 
L 4684 2906 
L 4684 2381 
L 678 2381 
L 678 2906 
z
M 678 1631 
L 4684 1631 
L 4684 1100 
L 678 1100 
L 678 1631 
z
" transform="scale(0.015625)"/>
      </defs>
      <use xlink:href="#DejaVuSans-62" transform="translate(0 0.015625)"/>
      <use xlink:href="#DejaVuSans-65" transform="translate(63.476562 0.015625)"/>
      <use xlink:href="#DejaVuSans-6c" transform="translate(125 0.015625)"/>
      <use xlink:href="#DejaVuSans-6c" transform="translate(152.783203 0.015625)"/>
      <use xlink:href="#DejaVuSans-38" transform="translate(180.566406 0.015625)"/>
      <use xlink:href="#DejaVuSans-30" transform="translate(244.189453 0.015625)"/>
      <use xlink:href="#DejaVuSans-2c" transform="translate(307.8125 0.015625)"/>
      <use xlink:href="#DejaVuSans-20" transform="translate(339.599609 0.015625)"/>
      <use xlink:href="#DejaVuSans-Oblique-70" transform="translate(371.386719 0.015625)"/>
      <use xlink:href="#DejaVuSans-Oblique-62" transform="translate(434.863281 -16.390625) scale(0.7)"/>
      <use xlink:href="#DejaVuSans-3d" transform="translate(482.03125 0.015625)"/>
      <use xlink:href="#DejaVuSans-34" transform="translate(565.820312 0.015625)"/>
      <use xlink:href="#DejaVuSans-30" transform="translate(629.443359 0.015625)"/>
      <use xlink:href="#DejaVuSans-30" transform="translate(693.066406 0.015625)"/>
      <use xlink:href="#DejaVuSans-30" transform="translate(756.689453 0.015625)"/>
      <use xlink:href="#DejaVuSans-30" transform="translate(820.3125 0.015625)"/>
      <use xlink:href="#DejaVuSans-20" transform="translate(883.935547 0.015625)"/>
      <use xlink:href="#DejaVuSans-50" transform="translate(915.722656 0.015625)"/>
      <use xlink:href="#DejaVuSans-61" transform="translate(976.025391 0.015625)"/>
     </g>
    </g>
    <g id="line2d_38">
     <path d="M 46.78149 346.40351 
L 54.78149 346.40351 
L 62.78149 346.40351 
" style="fill: none; stroke-dasharray: 7.4,3.2; stroke-dashoffset: 0; stroke: #bd4f2c; stroke-width: 2"/>
    </g>
    <g id="text_19">
     <!-- bell80, $p_b$=15000 Pa -->
     <g transform="translate(69.18149 349.20351) scale(0.08 -0.08)">
      <use xlink:href="#DejaVuSans-62" transform="translate(0 0.015625)"/>
      <use xlink:href="#DejaVuSans-65" transform="translate(63.476562 0.015625)"/>
      <use xlink:href="#DejaVuSans-6c" transform="translate(125 0.015625)"/>
      <use xlink:href="#DejaVuSans-6c" transform="translate(152.783203 0.015625)"/>
      <use xlink:href="#DejaVuSans-38" transform="translate(180.566406 0.015625)"/>
      <use xlink:href="#DejaVuSans-30" transform="translate(244.189453 0.015625)"/>
      <use xlink:href="#DejaVuSans-2c" transform="translate(307.8125 0.015625)"/>
      <use xlink:href="#DejaVuSans-20" transform="translate(339.599609 0.015625)"/>
      <use xlink:href="#DejaVuSans-Oblique-70" transform="translate(371.386719 0.015625)"/>
      <use xlink:href="#DejaVuSans-Oblique-62" transform="translate(434.863281 -16.390625) scale(0.7)"/>
      <use xlink:href="#DejaVuSans-3d" transform="translate(482.03125 0.015625)"/>
      <use xlink:href="#DejaVuSans-31" transform="translate(565.820312 0.015625)"/>
      <use xlink:href="#DejaVuSans-35" transform="translate(629.443359 0.015625)"/>
      <use xlink:href="#DejaVuSans-30" transform="translate(693.066406 0.015625)"/>
      <use xlink:href="#DejaVuSans-30" transform="translate(756.689453 0.015625)"/>
      <use xlink:href="#DejaVuSans-30" transform="translate(820.3125 0.015625)"/>
      <use xlink:href="#DejaVuSans-20" transform="translate(883.935547 0.015625)"/>
      <use xlink:href="#DejaVuSans-50" transform="translate(915.722656 0.015625)"/>
      <use xlink:href="#DejaVuSans-61" transform="translate(976.025391 0.015625)"/>
     </g>
    </g>
    <g id="line2d_39">
     <path d="M 46.78149 358.16351 
L 54.78149 358.16351 
L 62.78149 358.16351 
" style="fill: none; stroke-dasharray: 2,3.3; stroke-dashoffset: 0; stroke: #bd4f2c; stroke-width: 2"/>
    </g>
    <g id="text_20">
     <!-- bell80, $p_b$=5000 Pa -->
     <g transform="translate(69.18149 360.96351) scale(0.08 -0.08)">
      <use xlink:href="#DejaVuSans-62" transform="translate(0 0.015625)"/>
      <use xlink:href="#DejaVuSans-65" transform="translate(63.476562 0.015625)"/>
      <use xlink:href="#DejaVuSans-6c" transform="translate(125 0.015625)"/>
      <use xlink:href="#DejaVuSans-6c" transform="translate(152.783203 0.015625)"/>
      <use xlink:href="#DejaVuSans-38" transform="translate(180.566406 0.015625)"/>
      <use xlink:href="#DejaVuSans-30" transform="translate(244.189453 0.015625)"/>
      <use xlink:href="#DejaVuSans-2c" transform="translate(307.8125 0.015625)"/>
      <use xlink:href="#DejaVuSans-20" transform="translate(339.599609 0.015625)"/>
      <use xlink:href="#DejaVuSans-Oblique-70" transform="translate(371.386719 0.015625)"/>
      <use xlink:href="#DejaVuSans-Oblique-62" transform="translate(434.863281 -16.390625) scale(0.7)"/>
      <use xlink:href="#DejaVuSans-3d" transform="translate(482.03125 0.015625)"/>
      <use xlink:href="#DejaVuSans-35" transform="translate(565.820312 0.015625)"/>
      <use xlink:href="#DejaVuSans-30" transform="translate(629.443359 0.015625)"/>
      <use xlink:href="#DejaVuSans-30" transform="translate(693.066406 0.015625)"/>
      <use xlink:href="#DejaVuSans-30" transform="translate(756.689453 0.015625)"/>
      <use xlink:href="#DejaVuSans-20" transform="translate(820.3125 0.015625)"/>
      <use xlink:href="#DejaVuSans-50" transform="translate(852.099609 0.015625)"/>
      <use xlink:href="#DejaVuSans-61" transform="translate(912.402344 0.015625)"/>
     </g>
    </g>
    <g id="line2d_40">
     <path d="M 168.22149 334.64351 
L 176.22149 334.64351 
L 184.22149 334.64351 
" style="fill: none; stroke: #0f4c81; stroke-width: 2; stroke-linecap: square"/>
    </g>
    <g id="text_21">
     <!-- conical15, $p_b$=40000 Pa -->
     <g transform="translate(190.62149 337.44351) scale(0.08 -0.08)">
      <defs>
       <path id="DejaVuSans-63" d="M 3122 3366 
L 3122 2828 
Q 2878 2963 2633 3030 
Q 2388 3097 2138 3097 
Q 1578 3097 1268 2742 
Q 959 2388 959 1747 
Q 959 1106 1268 751 
Q 1578 397 2138 397 
Q 2388 397 2633 464 
Q 2878 531 3122 666 
L 3122 134 
Q 2881 22 2623 -34 
Q 2366 -91 2075 -91 
Q 1284 -91 818 406 
Q 353 903 353 1747 
Q 353 2603 823 3093 
Q 1294 3584 2113 3584 
Q 2378 3584 2631 3529 
Q 2884 3475 3122 3366 
z
" transform="scale(0.015625)"/>
      </defs>
      <use xlink:href="#DejaVuSans-63" transform="translate(0 0.015625)"/>
      <use xlink:href="#DejaVuSans-6f" transform="translate(54.980469 0.015625)"/>
      <use xlink:href="#DejaVuSans-6e" transform="translate(116.162109 0.015625)"/>
      <use xlink:href="#DejaVuSans-69" transform="translate(179.541016 0.015625)"/>
      <use xlink:href="#DejaVuSans-63" transform="translate(207.324219 0.015625)"/>
      <use xlink:href="#DejaVuSans-61" transform="translate(262.304688 0.015625)"/>
      <use xlink:href="#DejaVuSans-6c" transform="translate(323.583984 0.015625)"/>
      <use xlink:href="#DejaVuSans-31" transform="translate(351.367188 0.015625)"/>
      <use xlink:href="#DejaVuSans-35" transform="translate(414.990234 0.015625)"/>
      <use xlink:href="#DejaVuSans-2c" transform="translate(478.613281 0.015625)"/>
      <use xlink:href="#DejaVuSans-20" transform="translate(510.400391 0.015625)"/>
      <use xlink:href="#DejaVuSans-Oblique-70" transform="translate(542.1875 0.015625)"/>
      <use xlink:href="#DejaVuSans-Oblique-62" transform="translate(605.664062 -16.390625) scale(0.7)"/>
      <use xlink:href="#DejaVuSans-3d" transform="translate(652.832031 0.015625)"/>
      <use xlink:href="#DejaVuSans-34" transform="translate(736.621094 0.015625)"/>
      <use xlink:href="#DejaVuSans-30" transform="translate(800.244141 0.015625)"/>
      <use xlink:href="#DejaVuSans-30" transform="translate(863.867188 0.015625)"/>
      <use xlink:href="#DejaVuSans-30" transform="translate(927.490234 0.015625)"/>
      <use xlink:href="#DejaVuSans-30" transform="translate(991.113281 0.015625)"/>
      <use xlink:href="#DejaVuSans-20" transform="translate(1054.736328 0.015625)"/>
      <use xlink:href="#DejaVuSans-50" transform="translate(1086.523438 0.015625)"/>
      <use xlink:href="#DejaVuSans-61" transform="translate(1146.826172 0.015625)"/>
     </g>
    </g>
    <g id="line2d_41">
     <path d="M 168.22149 346.40351 
L 176.22149 346.40351 
L 184.22149 346.40351 
" style="fill: none; stroke-dasharray: 7.4,3.2; stroke-dashoffset: 0; stroke: #0f4c81; stroke-width: 2"/>
    </g>
    <g id="text_22">
     <!-- conical15, $p_b$=15000 Pa -->
     <g transform="translate(190.62149 349.20351) scale(0.08 -0.08)">
      <use xlink:href="#DejaVuSans-63" transform="translate(0 0.015625)"/>
      <use xlink:href="#DejaVuSans-6f" transform="translate(54.980469 0.015625)"/>
      <use xlink:href="#DejaVuSans-6e" transform="translate(116.162109 0.015625)"/>
      <use xlink:href="#DejaVuSans-69" transform="translate(179.541016 0.015625)"/>
      <use xlink:href="#DejaVuSans-63" transform="translate(207.324219 0.015625)"/>
      <use xlink:href="#DejaVuSans-61" transform="translate(262.304688 0.015625)"/>
      <use xlink:href="#DejaVuSans-6c" transform="translate(323.583984 0.015625)"/>
      <use xlink:href="#DejaVuSans-31" transform="translate(351.367188 0.015625)"/>
      <use xlink:href="#DejaVuSans-35" transform="translate(414.990234 0.015625)"/>
      <use xlink:href="#DejaVuSans-2c" transform="translate(478.613281 0.015625)"/>
      <use xlink:href="#DejaVuSans-20" transform="translate(510.400391 0.015625)"/>
      <use xlink:href="#DejaVuSans-Oblique-70" transform="translate(542.1875 0.015625)"/>
      <use xlink:href="#DejaVuSans-Oblique-62" transform="translate(605.664062 -16.390625) scale(0.7)"/>
      <use xlink:href="#DejaVuSans-3d" transform="translate(652.832031 0.015625)"/>
      <use xlink:href="#DejaVuSans-31" transform="translate(736.621094 0.015625)"/>
      <use xlink:href="#DejaVuSans-35" transform="translate(800.244141 0.015625)"/>
      <use xlink:href="#DejaVuSans-30" transform="translate(863.867188 0.015625)"/>
      <use xlink:href="#DejaVuSans-30" transform="translate(927.490234 0.015625)"/>
      <use xlink:href="#DejaVuSans-30" transform="translate(991.113281 0.015625)"/>
      <use xlink:href="#DejaVuSans-20" transform="translate(1054.736328 0.015625)"/>
      <use xlink:href="#DejaVuSans-50" transform="translate(1086.523438 0.015625)"/>
      <use xlink:href="#DejaVuSans-61" transform="translate(1146.826172 0.015625)"/>
     </g>
    </g>
    <g id="line2d_42">
     <path d="M 168.22149 358.16351 
L 176.22149 358.16351 
L 184.22149 358.16351 
" style="fill: none; stroke-dasharray: 2,3.3; stroke-dashoffset: 0; stroke: #0f4c81; stroke-width: 2"/>
    </g>
    <g id="text_23">
     <!-- conical15, $p_b$=5000 Pa -->
     <g transform="translate(190.62149 360.96351) scale(0.08 -0.08)">
      <use xlink:href="#DejaVuSans-63" transform="translate(0 0.015625)"/>
      <use xlink:href="#DejaVuSans-6f" transform="translate(54.980469 0.015625)"/>
      <use xlink:href="#DejaVuSans-6e" transform="translate(116.162109 0.015625)"/>
      <use xlink:href="#DejaVuSans-69" transform="translate(179.541016 0.015625)"/>
      <use xlink:href="#DejaVuSans-63" transform="translate(207.324219 0.015625)"/>
      <use xlink:href="#DejaVuSans-61" transform="translate(262.304688 0.015625)"/>
      <use xlink:href="#DejaVuSans-6c" transform="translate(323.583984 0.015625)"/>
      <use xlink:href="#DejaVuSans-31" transform="translate(351.367188 0.015625)"/>
      <use xlink:href="#DejaVuSans-35" transform="translate(414.990234 0.015625)"/>
      <use xlink:href="#DejaVuSans-2c" transform="translate(478.613281 0.015625)"/>
      <use xlink:href="#DejaVuSans-20" transform="translate(510.400391 0.015625)"/>
      <use xlink:href="#DejaVuSans-Oblique-70" transform="translate(542.1875 0.015625)"/>
      <use xlink:href="#DejaVuSans-Oblique-62" transform="translate(605.664062 -16.390625) scale(0.7)"/>
      <use xlink:href="#DejaVuSans-3d" transform="translate(652.832031 0.015625)"/>
      <use xlink:href="#DejaVuSans-35" transform="translate(736.621094 0.015625)"/>
      <use xlink:href="#DejaVuSans-30" transform="translate(800.244141 0.015625)"/>
      <use xlink:href="#DejaVuSans-30" transform="translate(863.867188 0.015625)"/>
      <use xlink:href="#DejaVuSans-30" transform="translate(927.490234 0.015625)"/>
      <use xlink:href="#DejaVuSans-20" transform="translate(991.113281 0.015625)"/>
      <use xlink:href="#DejaVuSans-50" transform="translate(1022.900391 0.015625)"/>
      <use xlink:href="#DejaVuSans-61" transform="translate(1083.203125 0.015625)"/>
     </g>
    </g>
   </g>
  </g>
 </g>
 <defs>
  <clipPath id="p21f56c1aed">
   <rect x="39.58149" y="18.118365" width="603.250665" height="351.725145"/>
  </clipPath>
 </defs>
</svg>
